<?xml version="1.0" standalone="no"?>
<!DOCTYPE svg PUBLIC "-//W3C//DTD SVG 20010904//EN"
 "http://www.w3.org/TR/2001/REC-SVG-20010904/DTD/svg10.dtd">
<svg version="1.0" xmlns="http://www.w3.org/2000/svg"
 width="512.000000pt" height="512.000000pt" viewBox="0 0 512.000000 512.000000"
 preserveAspectRatio="xMidYMid meet">
<metadata>
Created by potrace 1.16, written by Peter Selinger 2001-2019
</metadata>
<g transform="translate(0.000000,512.000000) scale(0.100000,-0.100000)"
fill="#000000" stroke="none">
<path d="M480 4480 l0 -240 120 0 120 0 0 240 0 240 -120 0 -120 0 0 -240z"/>
<path d="M880 4480 l0 -240 1680 0 1680 0 0 240 0 240 -1680 0 -1680 0 0 -240z
m720 0 l0 -80 -200 0 -200 0 0 80 0 80 200 0 200 0 0 -80z"/>
<path d="M4400 4480 l0 -240 120 0 120 0 0 240 0 240 -120 0 -120 0 0 -240z"/>
<path d="M617 4051 c10 -15 45 -69 78 -120 l60 -91 1805 0 1805 0 60 91 c33
51 68 105 78 120 l19 29 -1962 0 -1962 0 19 -29z"/>
<path d="M800 2040 l0 -1640 120 0 120 0 0 1640 0 1640 -120 0 -120 0 0 -1640z"/>
<path d="M1200 3600 l0 -80 1360 0 1360 0 0 80 0 80 -1360 0 -1360 0 0 -80z"/>
<path d="M4080 2040 l0 -1640 120 0 120 0 0 1640 0 1640 -120 0 -120 0 0
-1640z"/>
<path d="M1200 3280 l0 -80 1360 0 1360 0 0 80 0 80 -1360 0 -1360 0 0 -80z"/>
<path d="M1200 2960 l0 -80 1360 0 1360 0 0 80 0 80 -1360 0 -1360 0 0 -80z"/>
<path d="M1200 2640 l0 -80 1360 0 1360 0 0 80 0 80 -1360 0 -1360 0 0 -80z"/>
<path d="M1200 2320 l0 -80 1360 0 1360 0 0 80 0 80 -1360 0 -1360 0 0 -80z"/>
<path d="M1200 2000 l0 -80 1360 0 1360 0 0 80 0 80 -1360 0 -1360 0 0 -80z"/>
<path d="M1200 1680 l0 -80 1360 0 1360 0 0 80 0 80 -1360 0 -1360 0 0 -80z"/>
<path d="M1200 1360 l0 -80 1360 0 1360 0 0 80 0 80 -1360 0 -1360 0 0 -80z"/>
<path d="M1200 1040 l0 -80 1360 0 1360 0 0 80 0 80 -1360 0 -1360 0 0 -80z"/>
</g>
</svg>
