<?xml version="1.0" standalone="no"?>
<!DOCTYPE svg PUBLIC "-//W3C//DTD SVG 20010904//EN"
 "http://www.w3.org/TR/2001/REC-SVG-20010904/DTD/svg10.dtd">
<svg version="1.0" xmlns="http://www.w3.org/2000/svg"
 width="512.000000pt" height="512.000000pt" viewBox="0 0 512.000000 512.000000"
 preserveAspectRatio="xMidYMid meet">
<metadata>
Created by potrace 1.16, written by Peter Selinger 2001-2019
</metadata>
<g transform="translate(0.000000,512.000000) scale(0.100000,-0.100000)"
fill="#000000" stroke="none">
<path d="M2371 5110 c-798 -67 -1491 -470 -1934 -1127 -388 -574 -523 -1298
-371 -1983 194 -871 839 -1584 1688 -1865 270 -90 511 -128 806 -128 569 0
1085 172 1543 516 246 184 496 465 658 739 328 554 433 1221 293 1858 -193
875 -853 1597 -1710 1873 -298 96 -677 142 -973 117z m379 -915 c602 -64 1106
-118 1120 -121 24 -5 22 -8 -41 -67 l-66 -62 -7 -280 c-3 -154 -10 -595 -16
-980 -14 -1081 -33 -1875 -42 -1875 -20 0 -2032 341 -2040 346 -4 3 -8 33 -8
68 l0 63 98 -19 c719 -139 1352 -258 1370 -258 12 0 40 9 61 20 242 123 370
944 371 2378 0 215 -1 392 -3 392 -2 0 -387 43 -857 95 -470 52 -864 95 -877
95 -19 0 -23 -5 -23 -29 0 -25 -8 -34 -56 -61 -30 -18 -53 -34 -51 -36 4 -4
1673 -204 1702 -204 44 0 15 -715 -46 -1120 -63 -417 -189 -857 -349 -1213
l-22 -49 -46 7 c-112 16 -1642 312 -1671 323 -20 7 -19 10 20 75 86 143 202
455 278 744 66 253 66 258 47 868 -9 297 -16 647 -16 778 l0 237 38 0 c20 0
530 -52 1132 -115z"/>
<path d="M1787 3403 c-6 -352 -20 -486 -82 -799 -64 -324 -136 -565 -237 -791
-28 -63 -49 -115 -47 -117 7 -6 1470 -288 1474 -285 9 10 82 185 115 279 162
452 266 1053 277 1596 l6 261 -34 6 c-19 4 -257 31 -529 62 -272 30 -588 66
-701 80 -113 14 -213 25 -221 25 -13 0 -16 -41 -21 -317z m856 119 c120 -60
226 -201 257 -343 21 -93 9 -213 -27 -291 -146 -311 -554 -333 -703 -37 -77
152 -87 318 -28 476 32 86 130 181 218 211 95 32 196 27 283 -16z m-202 -1104
l70 -11 -7 -46 c-23 -163 -187 -666 -228 -700 -10 -8 -37 -7 -102 4 -48 9 -90
18 -92 20 -2 2 27 86 66 187 69 182 116 333 147 481 20 89 16 87 146 65z"/>
<path d="M2448 3390 c-105 -20 -186 -116 -195 -233 -10 -122 48 -259 133 -316
43 -30 128 -39 193 -21 58 15 132 86 161 152 45 104 12 263 -71 347 -57 57
-146 86 -221 71z"/>
</g>
</svg>
